<svg width="20" height="20" viewBox="0 0 20 20" fill="none" xmlns="http://www.w3.org/2000/svg">
<path d="M3.7045 6.02981C3.44031 6.11787 3.20254 6.32922 3.07045 6.59341C3.00881 6.71963 3 6.78128 3 7.0484C3 7.3302 3.00587 7.3713 3.08219 7.51807C3.15264 7.65016 3.79256 8.30476 6.50196 11.0171C9.27299 13.7911 9.86888 14.3723 10.0157 14.4515C10.183 14.5425 10.2065 14.5484 10.5 14.5484C10.7935 14.5484 10.817 14.5425 10.9843 14.4515C11.1341 14.3723 11.7241 13.794 14.5098 11.0024C17.1663 8.34292 17.8708 7.62081 17.9296 7.50339C17.9912 7.37717 18 7.31552 18 7.0484C18 6.7666 17.9912 6.7255 17.9149 6.57286C17.8121 6.37032 17.6419 6.20006 17.4276 6.08852C17.2808 6.01513 17.2368 6.00633 16.9726 6.00633C16.4589 6.00633 16.7524 5.75094 13.4296 9.07091L10.5 11.9946L7.57339 9.07091C4.28278 5.78911 4.54403 6.01513 4.07143 6.00046C3.92466 5.99752 3.77495 6.00926 3.7045 6.02981Z" fill="#F2F2F2" fill-opacity="0.6"/>
</svg>
