<svg width="20" height="20" viewBox="0 0 20 20" fill="none" xmlns="http://www.w3.org/2000/svg">
<path d="M10 4C5.90909 4 2.41545 6.488 1 10C2.41545 13.512 5.90909 16 10 16C14.0909 16 17.5845 13.512 19 10C17.5845 6.488 14.0909 4 10 4ZM10 14C7.74182 14 5.90909 12.208 5.90909 10C5.90909 7.792 7.74182 6 10 6C12.2582 6 14.0909 7.792 14.0909 10C14.0909 12.208 12.2582 14 10 14ZM10 7.6C8.64182 7.6 7.54545 8.672 7.54545 10C7.54545 11.328 8.64182 12.4 10 12.4C11.3582 12.4 12.4545 11.328 12.4545 10C12.4545 8.672 11.3582 7.6 10 7.6Z" fill="#F2F2F2" fill-opacity="0.6"/>
</svg>
