<svg width="16" height="17" viewBox="0 0 16 17" fill="none" xmlns="http://www.w3.org/2000/svg">
<g clip-path="url(#clip0_50_10925)">
<path d="M6.07494 7.80544C5.09596 5.75744 5.65297 3.16368 7.76285 1.75147C9.31011 0.72184 11.3862 0.704961 12.9447 1.72333C15.5835 3.43938 15.8592 7.02337 13.7549 9.12763C12.2865 10.5961 10.0978 10.9056 8.32549 10.056L5.87802 12.5035L7.0033 13.6287C7.6222 14.2476 7.6222 15.2604 7.0033 15.8793C6.3844 16.4982 5.37165 16.4982 4.75275 15.8793L3.62748 14.754C3.00857 15.3729 1.99583 15.3729 1.37693 14.754C0.758028 14.1351 0.758028 13.1224 1.37693 12.5035L6.07494 7.80544ZM11.5044 6.87709C12.1233 6.25819 12.1233 5.24544 11.5044 4.62654C10.8855 4.00764 9.87274 4.00764 9.25384 4.62654C8.63494 5.24544 8.63494 6.25819 9.25384 6.87709C9.87274 7.49599 10.8855 7.49599 11.5044 6.87709Z" fill="#F2F2F2" fill-opacity="0.6"/>
</g>
<defs>
<clipPath id="clip0_50_10925">
<rect width="16" height="16.5" fill="white"/>
</clipPath>
</defs>
</svg>
