<svg width="20" height="20" viewBox="0 0 20 20" fill="none" xmlns="http://www.w3.org/2000/svg">
<path d="M12.35 12.2857C15.675 12.2857 18 10.1622 18 7.10968C18 4.05714 15.675 2 12.35 2H5.96875C5.70988 2 5.5 2.19189 5.5 2.42857V9.80829H3.46875C3.20988 9.80829 3 10.0002 3 10.2369V11.8571C3 12.0938 3.20988 12.2857 3.46875 12.2857H5.5V13.4286H3.46875C3.20988 13.4286 3 13.6205 3 13.8571V15.2857C3 15.5224 3.20988 15.7143 3.46875 15.7143H5.5V17.5714C5.5 17.8081 5.70988 18 5.96875 18H8.25625C8.51512 18 8.725 17.8081 8.725 17.5714V15.7143H15.0312C15.2901 15.7143 15.5 15.5224 15.5 15.2857V13.8571C15.5 13.6205 15.2901 13.4286 15.0312 13.4286H8.725V12.2857H12.35ZM8.725 4.45529H11.8C13.625 4.45529 14.725 5.49493 14.725 7.10968C14.725 8.74654 13.625 9.80829 11.75 9.80829H8.725V4.45529Z" fill="#F2F2F2" fill-opacity="0.6"/>
</svg>
